<svg width="1440" height="491" viewBox="0 0 1440 491" fill="none" xmlns="http://www.w3.org/2000/svg">
<ellipse opacity="0.4" cx="1130.5" cy="481" rx="573.5" ry="481" fill="#FFECB3"/>
<path fill-rule="evenodd" clip-rule="evenodd" d="M-2.67998 303.88C-2.67998 303.88 123.001 430.037 307.06 430.037C491.119 430.037 547.593 288.514 754.077 303.767C960.561 319.02 1068.91 397.338 1247.37 409.091C1594.48 431.95 1839 355.561 1839 355.561L1745.67 498.617L-57 460.712L-2.67998 303.88Z" fill="#E1BEE7"/>
<path fill-rule="evenodd" clip-rule="evenodd" d="M1827.59 286.468C1827.59 286.468 1718.87 427.024 1535.07 436.654C1351.27 446.285 1345.77 363.759 1140.38 389.769C934.987 415.779 936.289 461.029 758.69 482.084C680.148 491.395 528.452 267.945 231.945 395.715C-64.5624 523.485 -554.688 197.424 -554.688 197.424L-137.493 483.162L1827.46 498.76L1827.59 286.468Z" fill="#DCEDC8"/>
<path fill-rule="evenodd" clip-rule="evenodd" d="M-4.24444 398.982C-4.24444 398.982 33.1532 482.837 195.378 482.837C357.602 482.837 400.788 362.756 582.778 377.946C764.767 393.136 860.26 471.133 1017.56 482.837C1323.49 505.602 1539 429.527 1539 429.527L1522.53 510.617L-21 495.056L-4.24444 398.982Z" fill="white"/>
</svg>
