<svg width="1052" height="443" viewBox="0 0 1052 443" fill="none" xmlns="http://www.w3.org/2000/svg">
<path fill-rule="evenodd" clip-rule="evenodd" d="M427.485 302.439C288.747 304.744 75.8625 254.613 20.6219 301.694C-44.6337 357.311 52.4309 410.012 282.215 396.006C512 382 662 176 743 330C774.063 389.058 943 459 996 391C1049 323 989.905 300.135 706.318 300.135C612.016 300.135 505.164 301.287 427.485 302.439Z" fill="#E1BEE7"/>
<path d="M876.564 222.916C871.548 227.389 873.742 233.773 873.742 233.773C873.742 233.773 871.234 232.497 867.158 232.177C862.768 231.858 858.692 241.435 858.692 241.435L861.514 254.523L856.179 251.969C849.908 295.072 871.548 328.274 871.548 328.274C872.802 325.401 873.742 322.528 873.742 320.294C874.37 309.756 865.904 303.052 866.531 283.895C867.785 239.2 891.619 254.523 894.441 236.966C896.95 220.681 905.102 207.913 905.729 207.274C894.441 213.02 881.581 218.128 876.564 222.916Z" fill="#8BC34A"/>
<path d="M876.954 284.792C871.922 290.141 855.546 328.186 872.501 328.166C878.153 328.156 884.134 314.008 892.009 296.084C896.417 286.024 905.203 292.613 905.203 292.613C905.203 292.613 887.645 273.467 876.954 284.792Z" fill="#DCEDC8"/>
<path d="M932.108 234.812C921.299 234.186 914.308 244.517 914.308 244.517C914.308 244.517 914.944 240.135 919.393 234.499C918.757 234.499 898.419 237.317 896.83 239.508C895.241 241.7 892.063 249.844 892.063 249.844C892.063 249.844 888.881 243.891 889.517 242.326C889.835 240.761 855.192 263.932 867.907 315.909C867.907 316.535 868.225 317.161 868.225 317.787C868.225 317.474 867.907 316.535 867.907 314.969C867.59 311.526 867.59 305.264 869.814 298.373C872.356 290.546 877.441 281.78 887.61 274.576C894.923 269.254 908.588 267.688 920.982 260.488C933.379 253.287 936.875 253.287 956.899 230.116C956.899 230.116 942.913 235.439 932.108 234.812Z" fill="#558B2F"/>
<path d="M802.097 297.575C795.235 299.722 779.945 306.469 773.395 319.659C773.395 319.659 788.992 300.949 811.456 300.949C830.8 300.949 857.627 313.526 860.127 323.953L867.925 317.206C867.925 317.206 839.534 286.228 802.097 297.575Z" fill="#143549"/>
<path d="M864.886 266.943C862.285 284.931 866.837 310.358 870.739 319.354C871.389 309.117 867.162 300.745 867.813 282.447C869.113 239.032 893.825 253.915 896.755 236.861C899.357 221.043 907.811 208.64 908.461 208.02C907.811 208.64 896.101 221.973 890.248 234.381C883.745 248.954 868.463 243.993 864.886 266.943Z" fill="#DCEDC8"/>
<path d="M803.835 311.5C797.932 314.282 784.892 322.317 780.234 336.227C780.234 336.227 792.343 315.827 812.529 313.973C828.674 312.428 853.207 321.08 859.106 330.664L865.009 325.411C865.009 325.411 836.44 296.667 803.835 311.5Z" fill="#4AF6D1"/>
<path d="M815.464 279.323C815.464 279.323 823.948 279.296 831.459 289.329C839.909 301.241 854.911 328.212 861.514 328.192C880.998 328.134 852.548 278.268 847.226 271.69C835.95 258.215 815.464 279.323 815.464 279.323Z" fill="#6A1B9A"/>
<path d="M889.641 314.258C889.641 314.258 872.305 304.186 864.281 329.367H888.353C881.292 325.59 882.897 318.98 889.641 314.258Z" fill="#9C27B0"/>
<path d="M918.385 309.018C909.574 303.201 896.674 306.111 895.73 306.43C870.554 300.618 860.486 323.548 858.594 328.715H863.317C864.576 318.382 883.455 303.524 894.157 319.351C905.799 336.469 924.052 344.218 924.052 344.218C930.974 329.684 929.086 316.444 918.385 309.018Z" fill="#8BC34A"/>
<path d="M919.305 310.602C910.48 304.954 900.711 306.825 897.561 307.763C907.015 309.025 914.894 313.417 918.366 318.117C925.935 329.087 924.367 338.798 925.003 344.754C931.922 330.661 930.025 317.502 919.305 310.602Z" fill="#558B2F"/>
<path d="M913.284 276.792C903.104 271.774 897.378 277.42 897.378 277.42C882.423 273.025 876.379 285.888 876.379 285.888C876.379 285.888 890.694 281.497 897.06 291.534C903.422 301.258 916.783 304.712 916.783 304.712C924.1 295.298 923.786 281.811 913.284 276.792Z" fill="#8BC34A"/>
<path d="M912.47 276.792C902.047 271.774 896.184 277.42 896.184 277.42C896.184 277.42 908.561 277.42 916.053 304.712C923.545 295.298 923.224 281.811 912.47 276.792Z" fill="#558B2F"/>
<path d="M824.987 263.436C824.987 263.436 819.115 256.909 807.37 261.882C795.621 266.854 794.385 282.399 801.807 293.588C801.807 293.588 816.024 290.169 824.369 279.602C835.5 265.3 847.863 274.314 847.863 274.314C847.863 274.314 838.59 257.841 824.987 263.436Z" fill="#E9F6FF"/>
<path d="M807.563 261.882C795.596 266.854 794.337 282.399 801.896 293.588C811.655 262.814 825.506 263.436 825.506 263.436C825.506 263.436 819.525 256.909 807.563 261.882Z" fill="#4AF6D1"/>
<path d="M872.504 296.321C874.988 288.551 879.956 279.845 889.891 272.696C897.036 267.412 910.387 265.858 922.496 258.71C934.609 251.557 938.024 251.557 957.589 228.557C956.343 229.8 938.024 247.516 919.391 249.07C901.383 250.007 874.367 254.669 872.504 296.321Z" fill="#8BC34A"/>
<rect x="235.164" y="14.4304" width="627.555" height="315.286" fill="#FAFAFA" stroke="#9C27B0"/>
<path fill-rule="evenodd" clip-rule="evenodd" d="M880.778 8.28143C880.778 3.77143 877.31 0.110001 873.044 0.110001H229.179C224.908 0.110001 221.445 3.77143 221.445 8.28143C221.445 12.7914 224.908 16.4529 229.179 16.4529H873.044C877.31 16.4529 880.778 12.7914 880.778 8.28143Z" fill="#9C27B0"/>
<path d="M797.422 123.185C763.41 184.689 768.821 267.343 720.112 267.343C694.602 267.343 650.536 122.416 611.494 175.08C537.276 275.799 509.443 173.927 467.696 205.834C425.562 238.126 412.029 293.865 373.761 293.865C350.57 293.865 336.651 260.42 312.302 270.803C282.536 283.487 281.763 313.472 240.402 330.385C241.948 329.616 863.91 330.385 863.91 330.385V90.1246C850.769 80.131 815.979 89.7402 797.422 123.185Z" fill="#DCEDC8"/>
<rect x="426.297" y="233.184" width="9.69406" height="53.7671" fill="#8BC34A"/>
<rect x="444.129" y="252.18" width="9.69455" height="33.2226" fill="#8BC34A"/>
<rect x="463.078" y="238.183" width="9.9159" height="48.7446" fill="#8BC34A"/>
<rect x="481.402" y="245.179" width="9.69455" height="40.2652" fill="#8BC34A"/>
<rect x="499.348" y="225.176" width="9.69455" height="61.3785" fill="#8BC34A"/>
<path d="M643.33 224.691C632.624 243.296 630.712 277.845 615.035 277.845C602.03 277.845 605.854 205.331 583.295 205.331C551.172 205.331 554.231 286.956 554.231 286.956H676.982C676.982 286.956 674.688 260.378 673.541 251.648C667.806 208.368 650.6 211.784 643.33 224.691Z" fill="#FFC107"/>
<path d="M691.613 221.228C670.579 221.228 661.233 274.905 637.862 274.905C618.391 274.905 616.054 227.406 590.347 227.406C562.303 227.406 554.125 288.811 554.125 288.811H721.599C721.599 288.811 715.368 221.228 691.613 221.228Z" fill="#FFECB3"/>
<path d="M674.639 231.23C650.105 231.23 659.841 278.418 636.47 278.418C616.999 278.418 619.725 247.608 594.407 247.608C566.363 247.608 552.344 288.947 552.344 288.947H719.823C720.597 288.947 696.842 231.23 674.639 231.23Z" fill="#FF6F00"/>
<path d="M705.571 104.598C700.161 101.108 699.002 91.8025 698.615 85.2109C697.07 47.5949 679.289 39.0646 666.536 49.1459C647.988 63.4923 664.218 122.439 635.617 122.439C612.431 122.439 620.933 68.538 588.467 68.1502C550.592 67.7625 548.273 132.908 548.273 132.908H729.921C729.535 94.9044 713.686 109.644 705.571 104.598Z" fill="#FFECB3"/>
<path d="M715.653 105.587C712.932 105.97 710.211 105.97 708.268 104.812C704.381 102.48 702.048 96.2764 701.66 86.1951C700.882 65.6398 694.663 51.2934 684.946 46.6404C679.499 43.9263 673.28 45.0895 667.45 49.3546C658.898 55.9463 657.344 71.0682 656.177 85.4197C654.234 104.419 652.291 122.26 637.126 122.26C627.02 122.26 623.522 111.791 618.858 99.3784C613.805 84.6442 607.974 68.359 589.312 67.9663H588.923C572.987 67.9663 560.932 79.2158 553.936 100.154C548.494 116.056 548.105 132.341 548.105 132.341H550.049C550.049 131.566 552.77 69.91 588.923 69.91H589.312C606.42 70.2977 611.856 85.4197 616.914 99.7661C621.19 112.179 625.466 123.811 636.738 123.811C653.845 123.811 655.789 104.419 657.732 85.4197C659.287 71.0682 660.453 56.7218 668.616 50.5179C673.669 46.6404 679.11 45.865 684.163 47.8037C693.108 52.0688 698.939 65.6398 699.716 85.4197C700.105 96.2764 702.437 102.868 707.101 105.587C709.822 107.138 712.932 106.75 715.653 106.75C719.151 106.358 722.649 106.358 725.375 108.689C728.873 111.791 730.817 119.546 730.817 131.954H732.76C732.372 118.77 730.428 111.016 726.541 107.521C723.427 104.812 719.151 105.199 715.653 105.587Z" fill="#FF6F00"/>
<path d="M675.221 48.6259C677.298 48.6259 678.981 46.9436 678.981 44.866C678.981 42.7884 677.298 41.106 675.221 41.106C673.143 41.106 671.461 42.7884 671.461 44.866C671.461 46.9436 673.143 48.6259 675.221 48.6259Z" fill="#FF6F00"/>
<rect x="676.414" y="53.2278" width="1.2" height="2.53849" fill="#FF6F00"/>
<rect x="676.414" y="115.369" width="1.2" height="5.0759" fill="#FF6F00"/>
<rect x="676.414" y="124.228" width="1.2" height="5.07753" fill="#FF6F00"/>
<rect x="676.414" y="110.39" width="1.2" height="5.07644" fill="#FF6F00"/>
<rect x="676.414" y="69.461" width="1.2" height="5.07753" fill="#FF6F00"/>
<rect x="676.414" y="75.32" width="1.2" height="5.07753" fill="#FF6F00"/>
<rect x="676.414" y="102.537" width="1.2" height="5.0759" fill="#FF6F00"/>
<rect x="676.414" y="57.0868" width="1.2" height="5.07644" fill="#FF6F00"/>
<rect x="676.414" y="62.4826" width="1.2" height="5.07753" fill="#FF6F00"/>
<rect x="676.414" y="83.179" width="1.2" height="5.07644" fill="#FF6F00"/>
<rect x="676.414" y="95.0163" width="1.2" height="5.07644" fill="#FF6F00"/>
<rect x="676.414" y="91.1573" width="1.2" height="5.07644" fill="#FF6F00"/>
<rect x="676.414" y="129.456" width="1.2" height="2.53741" fill="#FF6F00"/>
<path d="M585.233 72.6163C587.31 72.6163 588.993 70.9291 588.993 68.8515C588.993 66.7787 587.31 65.0916 585.233 65.0916C583.155 65.0916 581.473 66.7787 581.473 68.8515C581.473 70.9291 583.155 72.6163 585.233 72.6163Z" fill="#FF6F00"/>
<rect x="585" y="73.2115" width="0.8" height="2.53903" fill="#FF6F00"/>
<rect x="585" y="98.0705" width="0.8" height="5.07644" fill="#FF6F00"/>
<rect x="585" y="85.3525" width="0.8" height="5.07753" fill="#FF6F00"/>
<rect x="585" y="92.2115" width="0.8" height="5.07644" fill="#FF6F00"/>
<rect x="585" y="124.347" width="0.8" height="5.07644" fill="#FF6F00"/>
<rect x="585" y="77.0705" width="0.8" height="5.07644" fill="#FF6F00"/>
<rect x="585" y="115.488" width="0.8" height="5.07644" fill="#FF6F00"/>
<rect x="585" y="105.347" width="0.8" height="5.07753" fill="#FF6F00"/>
<rect x="585" y="111.206" width="0.8" height="5.07753" fill="#FF6F00"/>
<rect x="585" y="129.456" width="0.8" height="2.53741" fill="#FF6F00"/>
<rect x="548.105" y="133.022" width="182.352" height="0.8" fill="#E1BEE7"/>
<path fill-rule="evenodd" clip-rule="evenodd" d="M775.273 238.99C775.273 226.935 785.068 217.14 797.124 217.14C809.184 217.14 818.979 226.935 818.979 238.99C818.979 251.045 809.184 260.845 797.124 260.845C785.068 260.845 775.273 251.045 775.273 238.99ZM776.027 238.99C776.027 250.669 785.445 260.087 797.124 260.087C808.807 260.087 818.225 250.669 818.225 238.99C818.225 227.312 808.807 217.889 797.124 217.889C785.445 217.889 776.027 227.312 776.027 238.99Z" fill="#6A1B9A"/>
<path fill-rule="evenodd" clip-rule="evenodd" d="M768.328 239.494C768.328 223.768 780.909 211.181 796.636 211.181C811.975 211.181 824.556 223.768 824.949 239.494C824.949 255.221 812.368 267.807 796.636 267.807C780.909 267.807 768.328 255.221 768.328 239.494ZM771.473 239.494C771.473 253.255 782.875 264.662 796.636 264.662C810.402 264.662 821.41 253.255 821.804 239.494C821.804 225.734 810.402 214.327 796.636 214.327C782.875 214.327 771.473 225.734 771.473 239.494Z" fill="#E1BEE7"/>
<path d="M795.594 207.108C786.551 207.108 778.295 210.541 772.004 216.645L774.363 218.935C780.26 213.212 787.731 210.16 795.594 210.16C812.112 210.16 825.873 223.136 825.873 239.541C825.873 255.946 812.505 268.923 795.594 268.923V271.975C814.078 271.975 829.018 257.472 829.018 239.541C828.625 221.61 813.684 207.108 795.594 207.108Z" fill="#6A1B9A"/>
<path fill-rule="evenodd" clip-rule="evenodd" d="M263.074 93.1295C263.074 76.3971 276.802 62.3218 293.955 62.3218C311.113 62.3218 324.836 76.3971 324.836 93.1295C324.836 109.867 311.113 123.937 293.955 123.937C277.183 123.937 263.074 109.867 263.074 93.1295ZM268.035 93.1295C268.035 107.585 279.851 118.994 293.955 118.994C308.064 118.994 319.88 107.585 319.88 93.1295C319.88 78.6788 308.445 67.2703 293.955 67.2703C279.47 67.2703 268.035 78.6788 268.035 93.1295Z" fill="#9C27B0"/>
<path d="M293.035 63.1741V68.767C307.816 68.767 320.206 80.7569 320.206 95.9376H325.799C325.399 77.5559 311.017 63.1741 293.035 63.1741Z" fill="#6A1B9A"/>
<path fill-rule="evenodd" clip-rule="evenodd" d="M268.273 92.8925C268.273 79.7656 279.009 69.0204 292.13 69.0204C305.257 69.0204 315.993 79.7656 315.993 92.8925C315.993 106.019 305.257 116.759 292.13 116.759C279.009 116.759 268.273 106.019 268.273 92.8925ZM269.466 93.2903C269.466 105.622 279.407 115.969 292.13 115.969C304.462 115.969 314.8 105.622 314.8 93.2903C314.8 80.9539 304.859 70.6115 292.13 70.6115C279.804 70.6115 269.466 80.9539 269.466 93.2903Z" fill="#6A1B9A"/>
<g opacity="0.3">
<path fill-rule="evenodd" clip-rule="evenodd" d="M349.336 93.5313C349.336 76.5671 363.216 62.3015 380.566 62.3015C397.916 62.3015 411.796 76.5671 411.796 93.5313C411.796 110.496 397.916 124.761 380.566 124.761C363.601 124.761 349.336 110.496 349.336 93.5313ZM354.348 93.5313C354.348 108.183 366.3 119.749 380.566 119.749C394.83 119.749 406.783 108.183 406.783 93.5313C406.783 78.8811 394.83 67.3145 380.566 67.3145C365.914 67.3145 354.348 78.8811 354.348 93.5313Z" fill="#9C27B0" fill-opacity="0.3"/>
</g>
<path d="M378.445 62.4271V67.7265C393.227 67.7265 405.611 79.0872 405.611 93.4713C405.611 107.86 393.626 119.216 378.445 119.216V124.137C396.422 124.137 410.809 110.127 410.809 93.4713C410.809 76.816 396.422 62.4271 378.445 62.4271Z" fill="#6A1B9A"/>
<path fill-rule="evenodd" clip-rule="evenodd" d="M356.031 92.8925C356.031 79.7656 366.771 69.0204 379.903 69.0204C393.03 69.0204 403.77 79.7656 403.77 92.8925C403.77 106.019 393.03 116.759 379.903 116.759C366.771 116.759 356.031 106.019 356.031 92.8925ZM357.225 93.2903C357.225 105.622 367.169 115.969 379.903 115.969C392.632 115.969 402.577 105.622 402.577 93.2903C402.577 80.9539 392.632 70.6115 379.903 70.6115C367.567 70.6115 357.225 80.9539 357.225 93.2903Z" fill="#6A1B9A"/>
<path fill-rule="evenodd" clip-rule="evenodd" d="M269.192 159.527C275.291 153.046 283.677 149.235 292.445 149.235C309.603 149.235 323.325 163.338 322.944 180.115C322.944 196.888 309.222 210.996 292.063 210.996C275.291 210.996 261.188 197.269 261.188 180.115C261.188 172.492 264.237 165.244 269.192 159.527ZM266.524 180.497C266.524 194.982 278.341 206.417 292.445 206.417C306.553 206.417 318.37 194.6 318.37 180.497C318.37 166.007 306.553 154.571 292.445 154.571C284.821 154.571 277.96 158.002 273.004 163.338C268.811 167.913 266.524 174.016 266.524 180.497Z" fill="white"/>
<path d="M292.445 149.235V154.19C306.553 154.19 318.37 165.625 318.37 180.115C318.37 194.219 306.935 206.036 292.445 206.036C277.96 206.036 266.524 194.6 266.524 180.115H261.188C261.188 197.269 275.291 210.996 292.063 210.996C309.222 210.996 322.944 196.888 322.944 180.115C323.325 163.338 309.603 149.235 292.445 149.235Z" fill="#9C27B0"/>
<path fill-rule="evenodd" clip-rule="evenodd" d="M268.273 179.311C268.273 166.179 279.009 155.439 292.13 155.439C305.257 155.439 315.993 166.577 315.993 179.311C315.993 192.438 305.257 203.178 292.13 203.178C279.009 203.178 268.273 192.438 268.273 179.311ZM269.466 179.708C269.466 192.04 279.407 202.382 292.13 202.382C304.462 202.382 314.8 192.04 314.8 179.708C314.8 167.372 304.859 157.03 292.13 157.03C279.804 157.03 269.466 166.974 269.466 179.708Z" fill="#6A1B9A"/>
<path fill-rule="evenodd" clip-rule="evenodd" d="M349.332 180.115C349.332 163.338 363.022 149.235 380.14 149.235C397.252 149.235 410.947 163.338 410.947 180.115C410.947 196.888 397.252 210.996 380.14 210.996C363.402 210.996 349.332 197.269 349.332 180.115ZM354.276 180.497C354.276 194.982 366.064 206.417 380.14 206.417C394.21 206.417 405.999 194.6 405.999 180.497C405.999 166.007 394.21 154.571 380.14 154.571C365.684 154.571 354.276 166.388 354.276 180.497Z" fill="#9C27B0"/>
<path fill-rule="evenodd" clip-rule="evenodd" d="M356.031 179.311C356.031 166.179 366.771 155.439 379.903 155.439C393.03 155.439 403.77 166.577 403.77 179.311C403.77 192.438 393.03 203.178 379.903 203.178C366.771 203.178 356.031 192.438 356.031 179.311ZM357.225 179.708C357.225 192.04 367.169 202.382 379.903 202.382C392.632 202.382 402.577 192.04 402.577 179.708C402.577 167.372 392.632 157.03 379.903 157.03C367.567 157.03 357.225 166.974 357.225 179.708Z" fill="#6A1B9A"/>
<rect x="499.449" y="93.0253" width="11.457" height="5.92188" fill="#6A1B9A"/>
<rect x="499.449" y="105.152" width="11.457" height="5.5281" fill="#6A1B9A"/>
<rect x="433.09" y="105.152" width="23.6573" height="5.5281" fill="#6A1B9A"/>
<rect x="458.473" y="105.152" width="18.3051" height="5.5281" fill="#6A1B9A"/>
<rect x="481.289" y="105.152" width="11.8394" height="5.5281" fill="#6A1B9A"/>
<rect x="433.469" y="93.0253" width="23.2763" height="5.92188" fill="#6A1B9A"/>
<rect x="458.473" y="93.0253" width="18.3051" height="5.92188" fill="#6A1B9A"/>
<rect x="482.172" y="93.0253" width="10.7729" height="5.92188" fill="#6A1B9A"/>
<rect x="433.086" y="78.2885" width="7.89633" height="5.5281" fill="#6A1B9A"/>
<rect x="444.43" y="78.2885" width="10.1796" height="5.5281" fill="#6A1B9A"/>
<rect x="459.176" y="78.2885" width="17.7419" height="5.5281" fill="#6A1B9A"/>
<path d="M501.02 174.39V179.917L511.925 180.312V174.39H501.02Z" fill="#6A1B9A"/>
<rect x="499.449" y="186.071" width="11.457" height="5.9229" fill="#6A1B9A"/>
<rect x="433.09" y="186.071" width="23.6573" height="5.9229" fill="#6A1B9A"/>
<rect x="458.473" y="186.071" width="18.3051" height="5.9229" fill="#6A1B9A"/>
<rect x="481.289" y="186.071" width="11.8394" height="5.9229" fill="#6A1B9A"/>
<rect x="433.469" y="174.339" width="23.2763" height="5.5281" fill="#6A1B9A"/>
<rect x="458.473" y="174.339" width="18.3051" height="5.5281" fill="#6A1B9A"/>
<rect x="482.172" y="174.339" width="10.7729" height="5.5281" fill="#6A1B9A"/>
<rect x="433.086" y="162.208" width="7.89633" height="5.92188" fill="#6A1B9A"/>
<rect x="444.43" y="162.208" width="10.1796" height="5.92188" fill="#6A1B9A"/>
<rect x="459.176" y="162.208" width="17.7419" height="5.92188" fill="#6A1B9A"/>
<path d="M253.84 237.691C253.84 237.691 251.149 227.083 246.742 226.59C242.338 226.097 239.403 226.837 239.403 226.837C239.403 226.837 242.828 220.671 238.424 214.999C234.02 209.327 221.543 201.679 211.266 193.294C211.51 194.034 217.874 208.834 217.626 226.097C217.381 244.843 245.033 233.499 238.179 279.868C235.244 299.598 224.968 305.026 223.99 316.124C223.745 318.59 223.99 321.549 224.724 324.755C224.724 324.755 253.351 294.665 254.818 248.789L248.702 250.268L253.84 237.691Z" fill="#6A1B9A"/>
<path d="M251.927 283.126C247.008 288.292 228.556 320.273 245.031 320.27C250.691 320.27 261.024 306.493 268.649 296.897C275.291 288.534 285.374 289.762 285.374 289.762C285.374 289.762 262.015 272.057 251.927 283.126Z" fill="#558B2F"/>
<path d="M218.642 226.883C218.888 228.855 214.515 234.516 214.515 234.516C214.515 234.516 212.814 225.16 211.6 222.698C210.385 220.237 189.982 213.591 189.253 213.345C192.896 219.991 192.654 224.914 192.654 224.914C192.654 224.914 187.31 212.853 176.379 211.376C165.448 209.899 152.09 201.281 152.09 201.281C168.121 229.347 171.765 230.083 182.937 239.932C194.354 249.777 207.957 253.965 214.272 260.857C234.918 283.259 226.903 307.138 225.203 310.338L228.36 315.753C251.193 263.565 218.642 225.16 218.642 226.883Z" fill="#6A1B9A"/>
<path d="M167.524 295.144C160.209 297.421 144.114 305.251 137.043 319.901C137.043 319.901 153.625 298.933 177.522 298.933C198.005 298.933 226.537 313.081 229.219 324.703L237.508 317.123C237.265 316.87 207.272 282.01 167.524 295.144Z" fill="#6A1B9A"/>
<path d="M224.943 224.29C221.4 210.001 211.783 193.992 211.277 193.003C211.53 193.745 218.111 208.523 217.855 225.768C217.602 244.49 246.199 233.157 239.111 279.468C236.075 299.176 229.244 304.348 227.979 315.432C233.798 306.565 244.175 283.163 244.934 263.455C245.943 238.822 229.244 241.039 224.943 224.29Z" fill="#9C27B0"/>
<path d="M172.91 306.472C166.341 308.65 157.339 314.214 159.285 323.653C159.042 321.476 159.285 313.25 178.019 311.311C195.294 309.617 219.865 319.056 225.95 328.976H228.869L233.735 323.411C233.735 323.17 206.972 295.827 172.91 306.472Z" fill="#558B2F"/>
<path d="M172.72 275.02C172.72 275.02 185.508 274.035 193.377 284.856C202.473 297.397 224.602 322.727 231.49 323.217C252.394 324.197 221.171 275.257 215.516 268.618C203.221 254.107 172.72 275.02 172.72 275.02Z" fill="#9C27B0"/>
<path d="M232.297 329.487H255.867C252.43 326.565 249.484 319.025 257.585 312.458C257.831 312.458 235.243 307.837 232.297 329.487Z" fill="#558B2F"/>
<path d="M290.795 308.794C281.205 302.764 271.37 306.141 267.679 305.9C232.023 302.523 229.073 323.509 227.105 328.574H232.269C233.744 318.2 255.877 301.8 265.223 319.888C266.941 323.268 269.157 326.162 271.37 328.815H300.879C301.616 320.615 298.174 313.376 290.795 308.794Z" fill="#DCEDC8"/>
<path d="M292.84 309.196C282.957 303.076 272.567 305.279 269.016 306.258C277.888 306.993 288.025 312.133 291.576 317.274C294.87 321.925 296.898 325.845 298.165 329.761H303.486C303.993 321.194 300.445 313.847 292.84 309.196Z" fill="#DCEDC8"/>
<path d="M283.777 275.886C274.01 271.273 268.883 276.615 268.883 276.615C257.403 272.487 249.102 284.626 249.102 284.626C249.102 284.626 262.775 280.499 268.883 289.967C274.987 299.439 287.44 302.595 287.44 302.595C294.036 293.369 293.547 280.499 283.777 275.886Z" fill="#558B2F"/>
<path d="M284.226 275.886C274.349 271.273 269.164 276.615 269.164 276.615C269.164 276.615 280.769 276.615 287.93 302.595C294.6 293.369 294.106 280.499 284.226 275.886Z" fill="#558B2F"/>
<path d="M191.913 260.029C191.913 260.029 185.382 252.752 172.572 258.273C159.51 263.791 158.254 280.596 166.292 292.889C166.292 292.889 182.87 289.628 191.41 277.586C199.951 265.547 217.533 271.817 217.533 271.817C217.533 271.817 206.733 253.756 191.913 260.029Z" fill="#9C27B0"/>
<path d="M174.341 258.273C161.253 263.791 159.994 280.596 168.048 292.889C178.62 259.273 193.721 260.029 193.721 260.029C193.721 260.029 187.429 252.752 174.341 258.273Z" fill="#9C27B0"/>
<path d="M188.336 230.669C168.967 225.575 153.23 203.499 152.262 202.044C168.241 229.698 171.872 230.429 183.009 240.131C194.388 249.834 207.704 253.957 214.241 260.752C223.2 270.454 226.831 280.402 227.799 288.892C229.01 236.978 206.252 235.523 188.336 230.669Z" fill="#9C27B0"/>
<path d="M847.11 305.073C837.465 307.775 832.447 322.051 828.199 330.544C828.199 330.544 831.289 336.719 842.093 337.49C842.093 337.49 853.287 319.734 853.288 315.104C853.288 310.474 849.043 304.686 847.11 305.073Z" fill="#558B2F"/>
<path d="M847.197 305.2C846.809 305.2 846.034 305.599 845.646 305.599C846.034 305.994 846.034 306.798 846.034 307.597C846.034 317.584 839.442 327.571 832.07 335.561C834.402 337.159 837.504 338.358 842.157 338.757C842.157 338.757 853.401 320.38 853.401 315.587C853.401 310.793 849.136 304.8 847.197 305.2Z" fill="#346790"/>
<path d="M843.596 307.908C840.546 309.828 843.215 343.244 840.546 348.62C836.353 357.069 831.012 367.053 831.012 367.053C842.452 373.966 886.293 373.966 886.293 373.966C886.293 373.966 888.58 365.901 890.486 352.844C892.773 337.483 893.536 304.452 892.392 304.452C874.095 299.075 848.551 304.452 843.596 307.908Z" fill="#558B2F"/>
<path d="M875.243 284.275L860.174 293.644C860.57 294.429 861.364 299.894 860.174 302.627C859.381 304.969 858.191 308.482 863.743 309.653C868.898 310.824 878.019 306.14 876.834 302.237C874.45 295.205 875.243 284.275 875.243 284.275Z" fill="#FFD8D8"/>
<path d="M874.735 284.174L859.666 293.498C860.063 294.275 860.856 299.718 859.666 302.438C859.666 302.826 859.27 303.215 859.27 303.603C859.27 303.603 862.045 303.215 864.425 301.661C867.201 299.718 869.977 300.884 872.356 303.215C873.154 303.992 873.546 305.546 873.546 306.711C875.528 305.157 876.723 303.603 876.326 302.049C873.942 295.052 874.735 284.174 874.735 284.174Z" fill="#FFD8D8"/>
<path d="M891.277 303.416C885.534 302.643 875.574 311.537 875.196 326.233C875.196 330.1 874.048 335.127 870.597 340.933C868.682 344.413 861.408 347.12 858.345 348.28C855.282 349.44 854.899 350.601 856.43 351.761C858.345 352.921 872.511 355.241 870.98 357.175C869.065 359.495 851.453 363.362 854.899 371.101C856.43 374.964 882.854 372.257 887.831 371.101C889.363 368.003 889.746 361.042 890.511 356.401C892.809 347.12 892.043 327.006 893.192 316.178C894.34 308.83 897.403 304.19 891.277 303.416Z" fill="#558B2F"/>
<path d="M831.05 380.402C830.252 380.402 818.284 379.609 813.497 380.402C808.71 380.798 806.715 381.195 803.923 384.367C801.13 387.54 801.928 392.695 803.524 396.66C805.119 400.626 807.114 400.626 810.705 399.436C814.295 398.247 818.284 395.471 822.274 395.074C826.263 394.678 827.061 395.471 829.454 394.678C832.247 393.884 832.646 394.678 832.247 392.695C832.247 390.712 831.05 380.402 831.05 380.402Z" fill="#558B2F"/>
<path d="M831.051 380.751C830.253 380.751 818.285 379.965 813.498 380.751C808.71 381.145 806.716 381.538 803.923 384.684C802.327 386.257 801.929 388.617 802.327 390.976C805.12 391.763 807.514 391.37 810.306 390.976C812.7 390.583 815.492 389.403 817.886 389.797C820.678 390.19 823.87 392.156 824.668 394.909C826.662 394.909 827.46 394.909 829.455 394.516C832.247 393.729 832.646 394.516 832.247 392.55C832.247 390.976 831.051 380.751 831.051 380.751Z" fill="#558B2F"/>
<path d="M808.476 382.1C809.93 380.91 812.838 380.117 812.475 380.117C808.113 380.513 806.295 380.91 803.751 384.082C801.206 387.255 801.933 392.41 803.387 396.376C804.478 399.945 806.295 400.341 808.84 399.548C804.841 395.186 803.024 386.065 808.476 382.1Z" fill="#558B2F"/>
<path d="M893.401 379.307C890.609 378.91 881.433 378.91 874.646 378.117C874.646 378.117 867.465 388.427 867.066 388.824C867.066 389.22 872.651 391.996 875.045 393.979C877.439 395.962 886.619 399.134 889.412 398.346C891.805 397.945 896.593 387.634 897.789 384.065C898.587 380.1 896.194 379.703 893.401 379.307Z" fill="#558B2F"/>
<path d="M893.401 379.591C890.609 379.195 881.433 379.195 874.646 378.402C874.646 378.402 868.263 387.522 867.066 388.712C870.258 388.712 873.449 387.126 876.646 387.522C878.242 387.919 880.236 389.902 885.023 389.505C887.816 389.109 887.417 393.867 885.023 396.247C884.625 396.643 883.827 397.04 883.428 397.436C885.821 398.229 888.215 398.626 889.412 398.229C891.805 397.833 896.593 387.522 897.789 383.953C898.587 380.384 896.194 379.988 893.401 379.591Z" fill="#558B2F"/>
<path d="M808.107 356.638C801.601 357.794 799.305 362.806 799.305 368.204C799.305 371.288 801.984 375.148 805.811 375.92C809.255 377.076 865.135 389.799 866.666 390.184C868.197 390.57 874.708 374.372 874.708 374.372C872.407 373.987 819.971 354.324 808.107 356.638Z" fill="#FF6F00"/>
<path d="M824.946 372.051C813.465 372.442 809.638 370.88 799.687 365.415C799.687 366.196 799.305 367.367 799.305 368.538C799.305 371.661 801.984 375.565 805.811 376.345C809.255 377.516 865.135 390.403 866.666 390.793C868.197 391.184 874.708 374.784 874.708 374.784C873.937 374.394 858.246 368.929 848.296 365.415C840.259 369.319 833.366 371.661 824.946 372.051Z" fill="#FF6F00"/>
<path d="M844.032 266.475C844.032 266.475 841.333 268.792 841.333 271.494C840.944 274.578 844.418 279.599 844.418 279.599C844.418 279.599 847.509 271.109 847.119 268.794C846.737 268.405 844.032 266.475 844.032 266.475Z" fill="#212121"/>
<path d="M859.254 305.514L859.63 304.403C859.63 304.403 856.998 304.033 856.246 307.364C855.494 312.916 858.502 317.357 858.502 317.357C858.878 314.397 863.39 310.325 863.39 310.325C859.63 308.475 859.254 305.514 859.254 305.514Z" fill="#8BC34A"/>
<path d="M880.21 277.93C878.664 275.226 875.955 277.544 875.955 277.544C875.955 277.544 875.568 270.589 870.545 265.952C865.522 261.316 860.499 263.248 851.612 265.952C842.725 268.657 844.271 271.362 844.271 271.362C844.271 271.362 844.657 278.703 845.816 286.044C846.203 289.136 849.68 293.386 853.544 298.022C857.022 302.278 862.045 299.959 868.613 296.091C875.182 292.227 874.8 288.363 874.8 287.59C874.8 287.59 875.955 287.976 877.887 286.431C880.21 285.272 881.755 281.408 880.21 277.93Z" fill="#FFD8D8"/>
<path d="M843.993 264.324C842.824 266.675 841.65 274.512 848.279 276.477C855.293 278.431 868.151 269.418 870.879 274.512C873.217 278.828 870.489 281.571 872.438 283.53C873.607 284.314 874.776 283.922 875.56 282.746C875.56 282.354 875.56 279.22 877.118 276.869C877.118 276.869 878.287 276.08 879.456 276.08C879.456 276.08 881.015 270.986 878.672 266.283C871.658 250.217 849.058 254.136 843.993 264.324Z" fill="#212121"/>
<path d="M862.391 255.352C867.149 258.487 861.201 266.324 865.563 269.85C869.529 272.985 871.511 274.161 871.511 276.909C871.511 278.476 870.718 282.395 870.718 283.178L871.115 283.57C872.304 284.354 873.494 283.962 874.292 282.787C874.292 282.395 874.292 279.26 875.879 276.909C875.879 276.909 877.068 276.125 878.258 276.125C878.258 276.125 879.844 271.026 877.46 266.324C874.292 259.27 868.339 255.744 862.391 255.352Z" fill="#212121"/>
<path d="M894.565 360.493C888.021 356.675 876.473 361.257 863.766 365.457C853.757 368.512 825.652 378.059 825.652 378.059C825.652 378.059 822.958 389.902 830.656 397.157C830.656 397.157 869.155 387.993 894.18 377.3C896.105 376.532 898.8 375.386 899.569 371.567C899.954 367.367 898.03 362.403 894.565 360.493Z" fill="#FF6F00"/>
<path d="M895.333 360.015C896.103 362.299 896.103 364.964 894.949 368.009C893.024 372.197 888.405 374.481 884.17 373.72C882.246 373.344 880.706 372.197 879.166 371.816C876.082 371.435 874.542 372.582 872.233 374.867C868.768 377.912 865.689 380.577 861.069 381.338C858.375 381.719 856.065 381.338 853.371 381.338C849.906 381.719 847.597 383.622 844.517 384.384C837.584 386.287 831.425 384.765 825.266 382.48C825.266 386.668 826.42 391.998 830.655 395.805C830.655 395.805 869.153 386.668 894.179 376.009C896.103 375.242 898.798 374.1 899.568 370.293C899.953 366.867 898.413 362.299 895.333 360.015Z" fill="#FF6F00"/>
<path d="M877.626 280.571C877.245 281.323 877.245 281.699 877.626 282.451C878.002 283.203 878.002 282.827 878.002 283.579C878.002 284.331 877.245 283.955 877.245 284.707C876.869 285.459 877.245 285.835 878.002 286.211C878.754 286.587 879.882 285.835 880.258 283.955C880.629 282.075 881.01 280.195 880.629 279.443C879.506 278.691 878.002 279.443 877.626 280.571Z" fill="#FFD8D8"/>
<path d="M893.041 381.097C894.97 382.642 889.18 396.919 884.552 398.847C886.092 399.235 887.638 399.62 888.41 399.235C890.725 398.85 895.359 388.817 896.512 385.343C897.675 381.867 895.357 381.484 893.041 381.097Z" fill="#558B2F"/>
<path d="M886.743 311.839C885.584 319.756 897.554 340.099 897.554 340.099C897.554 340.099 868.203 333.318 865.114 332.941C860.48 332.564 854.688 328.42 853.144 328.797C852.758 328.797 848.896 330.304 848.896 330.304C848.51 330.304 842.718 335.201 843.104 336.332C843.104 336.708 844.649 336.332 845.035 335.955C846.193 335.201 848.51 332.941 849.283 332.564C850.827 331.811 853.916 331.434 853.916 331.434C853.916 331.434 851.213 332.564 850.441 333.318C848.896 334.448 846.193 336.708 845.421 338.215C845.035 338.592 845.035 339.345 845.035 339.345C845.421 339.345 846.193 339.345 846.966 338.969C848.124 338.592 849.669 336.708 850.055 336.332C850.441 335.955 853.144 334.825 853.144 334.825C853.144 334.825 850.055 337.838 849.669 338.592C848.896 339.722 847.352 342.359 847.738 342.359C848.124 342.359 848.51 341.982 849.283 341.606C850.827 340.476 851.599 338.969 852.372 338.592C853.144 338.215 855.075 337.085 855.847 336.708C855.847 336.708 854.302 337.838 854.302 338.592C853.916 339.345 853.144 341.229 853.144 341.229C853.144 341.229 852.758 343.866 853.53 343.866C854.302 343.489 855.075 340.852 855.075 340.852C855.075 340.852 855.461 340.476 856.233 339.722C856.233 339.722 859.708 340.852 862.797 340.852C865.886 340.852 867.431 339.722 867.431 339.722C867.817 340.852 901.416 350.647 904.505 351.024C907.98 351.777 910.683 349.517 910.683 348.387C911.846 342.736 904.505 325.03 899.485 312.598C894.851 301.668 887.129 309.956 886.743 311.839Z" fill="#FFD8D8"/>
<path d="M887.676 311.839C886.506 318.625 895.475 334.448 897.814 338.969C898.984 338.969 900.934 338.969 902.884 337.838C907.173 335.955 912.632 342.359 906.393 346.126C902.104 348.768 895.475 346.503 868.173 337.838C865.444 337.085 862.714 338.969 861.154 338.969C860.374 338.969 858.035 337.838 856.865 338.592C854.915 339.722 854.525 341.229 853.745 343.489C853.745 343.866 853.745 343.866 853.355 343.866C853.355 343.866 853.355 344.243 853.745 343.866C854.525 343.489 855.305 340.852 855.305 340.852C855.305 340.852 855.695 340.476 856.475 339.722C856.475 339.722 859.985 340.852 863.104 340.852C866.224 340.852 867.783 339.722 867.783 339.722C868.173 340.852 902.104 350.647 905.223 351.024C908.733 351.777 911.462 349.517 911.462 348.387C912.632 342.736 905.223 325.03 900.154 312.598C895.865 301.668 888.066 309.956 887.676 311.839Z" fill="#FFD8D8"/>
<path d="M889.446 303.244C880.941 305.148 880.201 315.812 894.624 337.892C894.624 337.892 903.499 337.131 908.306 332.562C908.306 332.562 898.691 300.965 889.446 303.244Z" fill="#558B2F"/>
<path d="M891.231 304.02C891.619 304.405 892.006 304.786 892.006 305.542C893.557 312.78 892.006 321.156 888.129 327.627C890.068 331.054 892.006 334.86 895.108 339.053C895.108 339.053 904.414 338.287 909.455 333.718C909.067 333.338 900.537 305.923 891.231 304.02Z" fill="#558B2F"/>
<path d="M874.26 296.036L874.63 298.884C874.63 298.884 869.078 308.243 863.156 307.425C863.156 307.425 867.598 311.904 869.078 315.158C869.078 315.158 876.115 308.243 876.855 301.731C877.596 297.257 874.26 296.036 874.26 296.036Z" fill="#8BC34A"/>
<path d="M844.419 356.397C844.417 357.555 845.573 358.711 846.732 358.713L901.919 358.713C903.073 358.715 904.234 357.553 904.236 356.394L844.419 356.397Z" fill="#6A1B9A"/>
<path d="M838.5 306.513C838.102 304.539 836.107 303.354 834.122 303.354H799.484V357.841L847.654 358.63C850.441 358.63 850.839 356.262 850.441 355.472L838.5 306.513Z" fill="#6A1B9A"/>
<path d="M835.044 304.316C835.044 303.526 834.275 303.132 833.89 303.132H774.605C773.835 303.132 773.065 303.921 773.45 304.71L784.613 352.865C785.383 356.027 788.078 357.995 791.157 357.995H846.597C847.367 357.995 848.137 357.206 847.752 356.417L835.044 304.316Z" fill="#E1BEE7"/>
<path d="M133.614 97.1383C138.214 97.1383 141.942 93.4117 141.942 88.8106C141.942 84.2096 138.214 80.483 133.614 80.483C129.014 80.483 125.285 84.2096 125.285 88.8106C125.285 93.4117 129.014 97.1383 133.614 97.1383Z" fill="#212121"/>
<path d="M134.12 80.483C133.327 80.483 132.136 80.483 131.344 80.8795H132.534C141.259 80.8795 141.259 94.3624 132.534 94.3624C126.981 94.3624 124.997 88.8106 126.584 84.8451C125.791 86.0347 125.395 87.621 125.395 88.8106C125.395 93.5693 128.964 97.1383 133.723 97.1383C138.483 97.1383 142.052 93.5693 142.052 88.8106C142.448 84.052 138.483 80.483 134.12 80.483Z" fill="#212121"/>
<path d="M129.81 78.7448C125.368 81.459 123.517 87.6629 126.478 92.7036C127.959 95.4178 130.551 96.9687 133.512 97.7442C131.661 96.9687 129.81 95.4178 128.7 93.4791C126.108 88.8261 127.59 82.6223 132.031 79.5203C133.882 78.3571 136.103 77.9694 138.324 78.3571C135.363 76.8061 132.402 76.8061 129.81 78.7448Z" fill="#212121"/>
<path d="M133.086 89.346C115.719 93.2102 119.963 109.032 120.735 112.89C122.279 120.993 129.611 125.621 139.261 125.625C151.998 125.624 158.946 107.1 151.613 96.2942C146.209 88.1913 137.718 88.1913 133.086 89.346Z" fill="#212121"/>
<path d="M134.655 89.7133C134.265 89.7133 134.265 89.7133 134.655 89.7133C134.265 89.7133 134.655 89.7133 134.655 89.7133C136.21 90.0997 137.766 90.8725 138.932 92.0316C142.434 93.5772 144.378 96.2819 145.935 99.373C147.101 102.464 147.49 105.555 146.713 109.033C145.935 112.515 143.212 115.606 139.711 117.538C136.598 119.47 132.321 120.243 128.43 119.084C126.096 118.311 124.151 117.152 122.595 115.606L122.207 115.22C124.541 122.175 131.542 126.425 140.489 126.425C153.325 126.425 160.327 107.878 152.936 97.0547C147.879 88.5542 139.322 88.5542 134.655 89.7133Z" fill="#212121"/>
<path d="M133.959 279.061C133.574 282.147 132.801 284.462 132.801 286.777C132.801 289.477 133.187 291.792 133.187 295.264C133.574 298.741 132.027 301.442 131.255 304.528C128.164 320.345 131.255 324.203 128.164 336.168C127.003 340.026 125.845 341.569 125.458 343.112C124.686 345.427 125.458 348.127 124.686 352.757C123.526 358.544 120.821 364.331 121.594 367.803C122.367 370.889 129.709 373.98 132.414 373.98C135.505 373.98 133.959 370.122 133.959 368.188C133.574 364.716 135.12 344.269 136.278 339.64C139.756 326.518 147.484 313.015 149.031 300.67C150.577 289.091 149.417 286.777 152.123 273.274C152.509 271.731 157.918 235.076 158.305 220.03L134.346 231.989C135.12 246.264 135.505 264.401 133.959 279.061Z" fill="#FFD8D8"/>
<path d="M144.351 268.259C147.547 280.604 144.351 292.949 140.755 305.299C136.359 318.802 132.763 324.975 131.965 339.254C131.565 343.884 128.369 347.356 127.169 351.599C125.172 358.158 129.567 364.331 125.172 372.046C127.569 373.209 129.967 373.98 131.565 373.98C134.761 373.98 133.163 370.122 133.163 368.188C132.763 364.716 134.361 344.269 135.561 339.64C139.157 326.518 147.147 313.015 148.745 300.67C150.344 289.091 149.145 286.777 151.942 273.274C152.341 271.731 157.935 235.076 158.334 220.03L141.553 228.131C143.551 241.248 141.155 255.137 144.351 268.259Z" fill="#FFD8D8"/>
<path d="M134.428 363.962C134.045 366.341 129.08 367.927 126.789 364.358C125.261 362.375 124.497 359.203 124.115 356.824V356.427C122.969 360.789 121.442 364.755 122.206 367.134C122.969 370.306 130.226 373.479 132.899 373.479C135.955 373.479 134.428 369.513 134.428 367.531V363.962Z" fill="#558B2F"/>
<path d="M148.091 137.125C141.323 139.031 142.917 131.788 141.721 125.303L132.566 128.357C133.761 134.456 134.556 138.649 129.381 140.555C126.595 141.699 121.818 142.842 119.032 143.605C114.653 144.748 112.265 175.248 111.469 183.634L119.431 186.683C121.023 180.966 124.605 171.055 124.605 164.189L154.858 160.377L152.469 150.466L162.819 147.035C160.033 136.743 156.052 135.219 148.091 137.125Z" fill="#FFD8D8"/>
<path d="M151.617 145.307C151.617 145.307 159.334 173.867 163.192 181.969L171.684 178.882C169.756 171.551 165.896 151.48 162.038 142.605L151.617 145.307Z" fill="#FFD8D8"/>
<path d="M147.356 136.791C140.718 138.834 142.281 131.071 141.109 124.126L132.129 127.394C132.52 128.62 132.52 129.846 132.911 131.071C135.253 135.157 140.328 140.877 144.622 140.469C146.965 140.06 148.917 137.2 151.65 137.2C153.211 136.791 155.554 137.2 157.506 137.609C154.772 135.566 151.65 135.566 147.356 136.791Z" fill="#FFD8D8"/>
<path d="M119.609 166.418C119.609 167.972 119.206 169.526 119.206 171.08C119.206 175.747 115.579 183.128 114.371 187.401L117.997 188.955C119.609 184.293 123.235 175.747 123.235 169.92C122.429 169.138 120.012 166.807 119.609 166.418Z" fill="#FFD8D8"/>
<path d="M142.202 99.6534C140.271 98.481 137.569 98.0902 134.481 98.8718C126.762 100.435 124.832 107.079 125.218 114.113C125.604 118.026 125.604 121.148 127.533 124.274C128.306 125.843 133.71 131.705 137.184 131.705C141.043 131.705 146.062 124.67 146.833 122.716C147.606 120.757 147.991 118.026 147.991 114.113V113.332C147.991 107.47 146.447 101.998 142.202 99.6534Z" fill="#FFD8D8"/>
<path d="M140.574 100.664C137.797 99.9241 134.227 99.9241 129.469 101.405C129.469 101.405 133.038 113.253 146.522 113.623C146.522 108.071 144.936 102.885 140.574 100.664Z" fill="#D7CCC8"/>
<path d="M151.479 347.962C150.706 346.425 149.933 345.273 148.774 341.433C145.296 329.527 148.387 325.298 145.296 309.552C144.524 306.48 142.977 303.791 143.364 300.335C143.364 296.879 144.137 294.574 143.751 291.886C143.751 289.582 142.591 286.893 142.591 284.2C141.818 274.599 141.818 271.143 141.818 257.317C142.205 236.573 143.751 226.588 136.022 211.222H120.178L118.246 225.436C118.632 241.566 120.564 258.853 124.042 277.287C126.748 290.729 127.52 295.726 129.839 306.864C132.543 318.769 142.591 348.346 142.977 353.338C142.977 354.49 143.364 371.009 143.751 373.313C144.137 375.618 143.751 380.994 146.842 380.994C149.547 380.994 154.571 375.234 154.958 373.313C156.116 370.241 153.025 364.091 151.865 358.331C151.479 352.954 152.252 350.266 151.479 347.962Z" fill="#FFD8D8"/>
<path d="M147.153 374.992C146.008 374.992 145.245 373.772 144.48 372.953V374.992C144.862 377.432 144.48 383.126 147.535 383.126C150.209 383.126 155.174 377.026 155.557 374.992C156.319 372.546 154.792 368.484 153.647 364.005C154.029 364.819 152.5 374.992 147.153 374.992Z" fill="#558B2F"/>
<path d="M162.557 193.843C157.882 195.016 128.657 199.71 118.137 193.451C117.358 198.145 109.176 204.404 109.176 219.269C109.176 240.788 118.137 284.213 118.137 284.213C118.137 284.213 138.399 289.689 152.817 284.995C158.661 256.826 166.454 227.879 164.116 206.751C164.116 205.969 162.557 194.625 162.557 193.843Z" fill="#558B2F"/>
<path d="M163.371 194.231C153.289 204.792 137.389 205.183 140.103 210.66C142.042 214.571 152.513 222.009 155.228 224.356C161.044 229.441 144.758 236.482 145.921 248.999C146.309 254.867 143.593 265.042 142.042 270.519C139.717 279.124 127.695 278.342 122.266 284.992C128.47 286.166 142.818 288.904 153.677 284.992C159.493 256.828 167.25 227.876 164.922 206.748C164.922 205.966 163.76 195.795 163.371 194.231Z" fill="#558B2F"/>
<path d="M164.196 140.408C159.068 135.071 148.418 136.596 148.418 136.596C144.474 140.027 136.585 145.363 136.585 145.363L125.145 141.933C125.145 141.933 113.707 142.314 112.128 152.611C111.735 156.042 119.228 155.66 119.228 160.616C119.228 164.046 121.201 166.715 123.568 168.621C124.357 174.338 124.751 180.437 124.357 183.487C123.963 189.967 120.018 189.591 120.413 193.398C121.595 199.883 159.858 198.358 163.408 194.546C166.958 190.734 163.408 167.096 161.829 154.898C160.646 148.032 166.958 143.076 164.196 140.408Z" fill="#558B2F"/>
<path fill-rule="evenodd" clip-rule="evenodd" d="M147.99 136.488C147.99 136.488 158.163 134.966 163.061 140.29C164.395 141.637 163.513 143.566 162.363 146.08C161.24 148.537 159.861 151.552 160.047 155.126C160.186 156.248 160.341 157.467 160.505 158.758C162.122 171.475 164.633 191.228 161.554 194.68C159.293 197.723 136.31 199.244 125.76 196.582C128.021 195.441 131.413 194.68 133.674 194.68C142.333 194.68 147.172 191.144 151.995 187.619C152.418 187.31 152.84 187.001 153.265 186.695C155.902 184.788 154.018 182.507 151.381 184.788C148.367 187.075 139.324 190.878 139.324 187.075C139.324 182.193 136.416 176.986 134.171 172.964C132.216 169.464 130.763 166.862 132.165 166.154C136.687 163.873 138.571 153.225 123.877 145.614C122.994 145.169 121.854 144.724 120.908 144.355C120.239 144.094 119.668 143.871 119.355 143.713C122.746 141.811 125.76 141.811 125.76 141.811L136.687 145.234C136.687 145.234 144.222 139.91 147.99 136.488ZM155.149 165.014C154.395 163.112 155.526 160.45 156.656 158.549C157.786 157.408 158.163 154.746 157.409 153.605C156.28 152.464 152.888 153.225 152.136 155.126C150.628 158.929 142.338 168.056 138.571 167.676C137.44 167.676 135.18 169.197 138.571 169.957C140.556 170.358 143.377 169.387 145.823 168.544C148.02 167.788 149.915 167.136 150.628 167.676C153.265 169.577 155.902 168.436 155.149 165.014Z" fill="#558B2F"/>
<path d="M133.51 121.15C133.086 121.573 133.933 121.996 134.357 121.996H137.317C137.74 121.996 138.586 121.996 138.164 121.15C138.164 121.15 136.894 120.304 135.625 120.304C134.778 120.304 133.933 120.727 133.51 121.15Z" fill="#D7CCC8"/>
<path d="M128.289 98.629C128.289 98.629 133.357 114.972 152.848 112.929C152.848 112.52 150.509 91.6781 128.289 98.629Z" fill="#212121"/>
<path d="M164.882 182.302C164.882 191.859 166.925 208.186 163.247 211.372C160.795 213.363 160.387 214.563 159.57 216.952C158.752 219.342 161.613 217.351 161.204 220.138C160.795 221.731 159.57 226.51 160.387 226.908C161.613 227.704 162.022 226.112 162.43 224.519C163.247 224.917 164.473 224.917 164.473 223.722C165.699 224.12 166.516 223.324 166.925 222.528C168.15 222.926 168.968 222.129 169.377 220.138C169.786 218.147 170.603 214.956 171.42 209.779C172.237 202.611 178.367 185.488 173.055 174.333C171.828 172.341 164.882 171.545 164.882 182.302Z" fill="#FFD8D8"/>
<path d="M159.576 218.87C159.153 219.681 159.153 220.89 157.461 223.307C158.73 223.307 159.998 222.496 160.422 220.482C161.691 219.681 162.537 218.87 162.96 218.07L162.537 214.439L159.576 218.87Z" fill="#FFD8D8"/>
<path d="M155.654 189.662C154.46 189.662 152.072 189.662 153.266 188.182C154.858 186.331 147.693 187.441 145.304 189.292C144.11 190.032 142.917 189.662 141.722 189.662C136.547 189.662 129.382 186.331 119.828 184.851C116.643 184.48 114.653 183.74 111.469 183C111.07 185.961 111.867 189.292 113.459 190.772C118.634 195.219 124.207 194.474 129.382 194.844C134.556 195.219 135.751 194.474 142.917 195.584C148.091 196.324 151.275 196.699 153.266 196.699C155.257 196.699 156.052 196.699 156.052 195.219C157.247 195.219 158.043 194.474 158.043 193.363C159.236 193.363 159.635 192.253 159.236 191.883C160.829 191.883 162.421 191.883 162.023 190.772C162.023 190.032 157.247 189.662 155.654 189.662Z" fill="#FFD8D8"/>
<path d="M204.523 149.248H158.91C158.517 149.248 158.123 149.635 157.73 150.022L148.293 188.739C148.293 189.513 148.686 189.9 149.472 189.9H191.942C194.301 189.9 196.267 188.352 197.053 186.029L205.703 150.022C205.703 150.022 205.31 149.248 204.523 149.248Z" fill="#FF6F00"/>
</svg>
