<svg width="24" height="23" viewBox="0 0 24 23" fill="none" xmlns="http://www.w3.org/2000/svg">
<path fill-rule="evenodd" clip-rule="evenodd" d="M0.469996 6.01953L10.7978 10.913C11.0664 11.0388 11.4265 11.1047 11.7805 11.1047C12.1345 11.1047 12.4947 11.0388 12.7632 10.913L23.091 6.01953C23.6343 5.76198 23.6343 5.34271 23.091 5.08516L12.7632 0.191667C12.4947 0.0658854 12.1345 0 11.7805 0C11.4265 0 11.0664 0.0658854 10.7978 0.191667L0.469996 5.08516C-0.0732507 5.34271 -0.0732507 5.76198 0.469996 6.01953Z" fill="black" fill-opacity="0.54"/>
<path fill-rule="evenodd" clip-rule="evenodd" d="M23.091 11.0329C23.091 11.0329 21.2049 10.1404 20.9547 10.0206C20.7044 9.90083 20.6373 9.90682 20.3748 10.0266C20.1123 10.1464 12.7571 13.6323 12.7571 13.6323C12.4825 13.7581 12.1284 13.824 11.7744 13.824C11.4204 13.824 11.0603 13.7581 10.7917 13.6323C10.7917 13.6323 3.63182 10.2422 3.2961 10.0805C2.92987 9.90682 2.8261 9.90682 2.49649 10.0625C2.15467 10.2243 0.457789 11.0269 0.457789 11.0269C-0.0854577 11.2844 -0.0854577 11.7037 0.457789 11.9612L10.7856 16.8547C11.0542 16.9805 11.4143 17.0464 11.7683 17.0464C12.1223 17.0464 12.4825 16.9805 12.751 16.8547L23.0788 11.9612C23.6343 11.7097 23.6343 11.2904 23.091 11.0329Z" fill="black" fill-opacity="0.54"/>
<path fill-rule="evenodd" clip-rule="evenodd" d="M23.091 16.9805C23.091 16.9805 21.2049 16.088 20.9547 15.9683C20.7044 15.8485 20.6373 15.8545 20.3748 15.9742C20.1123 16.094 12.7632 19.586 12.7632 19.586C12.4886 19.7117 12.1345 19.7776 11.7805 19.7776C11.4265 19.7776 11.0664 19.7117 10.7978 19.586C10.7978 19.586 3.63792 16.1959 3.3022 16.0341C2.93597 15.8604 2.8322 15.8604 2.50259 16.0162C2.16078 16.1779 0.463893 16.9805 0.463893 16.9805C-0.0793542 17.238 -0.0793542 17.6573 0.463893 17.9149L10.7917 22.8084C11.0603 22.9401 11.4204 23 11.7744 23C12.1284 23 12.4886 22.9341 12.7571 22.8084L23.0849 17.9149C23.6343 17.6573 23.6343 17.238 23.091 16.9805Z" fill="black" fill-opacity="0.54"/>
</svg>
