<svg width="38" height="24" viewBox="0 0 38 24" fill="none" xmlns="http://www.w3.org/2000/svg">
<path fill-rule="evenodd" clip-rule="evenodd" d="M26.4107 18.5667C27.3516 18.8917 25.4782 18.2417 26.4107 18.5667V18.5667Z" fill="black" fill-opacity="0.54"/>
<path fill-rule="evenodd" clip-rule="evenodd" d="M26.4107 18.5667C25.2867 18.175 24.071 18.15 22.947 17.7583C22.6056 17.6417 21.9312 17.5 21.7897 17.1083C21.6564 16.725 21.6564 16.275 21.6315 15.875C21.6148 15.5583 21.6065 15.2417 21.6065 14.925C21.6065 14.7167 22.1394 14.275 22.2559 14.0833C22.7055 13.3333 22.7472 12.325 22.8304 11.475C23.5548 11.675 23.6464 10.3333 23.7713 9.925C23.8629 9.64167 24.4207 7.69167 23.5548 7.95834C23.763 7.59167 23.8462 7.14167 23.9045 6.73334C24.071 5.66667 24.1376 4.5 23.8129 3.45834C23.1385 1.29167 21.0653 0.0750024 18.8755 0.0083357C16.6524 -0.0666643 14.421 1 13.5884 3.15834C13.1887 4.20834 13.222 5.35 13.3552 6.45C13.4135 6.95 13.4968 7.50834 13.7465 7.95834C12.9389 7.71667 13.3719 9.43334 13.4635 9.73334C13.5967 10.1583 13.7132 11.6833 14.4709 11.475C14.5375 12.15 14.6125 12.8417 14.7956 13.5C14.9205 13.9417 15.1787 14.3167 15.4784 14.6583C15.6283 14.825 15.7032 14.8417 15.6949 15.0583C15.6866 15.7083 15.7032 16.4083 15.5367 17.0417C15.3702 17.675 13.9797 17.9417 13.4218 18.0583C11.9231 18.3667 10.541 18.5083 9.29203 19.4417C7.83495 20.5167 7.07727 22.1917 7.07727 24C14.013 24 20.9487 24 27.8844 24C28.6671 24 29.4414 24 30.2241 24C30.2241 21.5417 28.742 19.375 26.4107 18.5667Z" fill="black" fill-opacity="0.54"/>
<path fill-rule="evenodd" clip-rule="evenodd" d="M9.26706 17.575C9.31701 17.5375 9.36697 17.5 9.40027 17.475C9.3753 17.4875 9.35032 17.5125 9.33367 17.525C9.30869 17.5375 9.29203 17.55 9.26706 17.575Z" fill="black" fill-opacity="0.54"/>
<path fill-rule="evenodd" clip-rule="evenodd" d="M9.26705 17.5416C8.98396 17.6833 8.64259 17.8583 9.33366 17.5083C9.58345 17.3833 9.53349 17.4083 9.40027 17.475C9.96646 17.2083 10.5743 17.1416 11.1821 17.0833C11.4152 17.0583 11.5235 16.9 11.3486 16.675C11.0156 16.25 9.86654 16.1666 9.38362 15.975C9.08388 15.8583 9.00062 15.75 8.97564 15.4166C8.96731 15.2666 8.88405 14.6 9.00062 14.4916C9.08388 14.4083 9.60843 14.4416 9.725 14.425C10.1996 14.3666 10.6825 14.2666 11.1321 14.0916C11.3236 14.0166 11.5068 13.925 11.6733 13.8083C11.8732 13.6583 11.5235 13.2916 11.4319 13.0916C11.1488 12.4666 11.0239 11.7833 10.9823 11.1C10.899 9.7583 11.1071 8.4083 10.8574 7.07497C10.4827 5.0333 8.90903 4.0083 6.90242 4.0083C5.66181 4.0083 4.43786 4.4333 3.74679 5.51663C2.98078 6.7083 3.02241 8.19163 3.06404 9.54997C3.08902 10.325 3.12232 11.1083 3.01408 11.8833C2.96413 12.2166 2.88919 12.5416 2.77262 12.8583C2.68103 13.1 2.21477 13.7 2.39794 13.825C3.08902 14.3166 4.25469 14.4833 5.08731 14.4166C5.11228 14.825 5.18722 15.35 5.03735 15.7333C4.80421 16.3333 3.06404 16.4916 2.53949 16.6666C1.08241 17.15 0 18.3333 0 20C1.52369 20 3.03906 20 4.56275 20C5.2455 20 5.92825 20 6.61933 20C6.72757 20 7.14388 19.225 7.26044 19.1C7.82662 18.475 8.5177 17.9333 9.26705 17.5416Z" fill="black" fill-opacity="0.54"/>
<path fill-rule="evenodd" clip-rule="evenodd" d="M34.7452 16.6584C34.0708 16.4417 32.7719 16.3751 32.289 15.7917C32.0475 15.5001 32.1807 14.7584 32.2057 14.4084C32.5721 14.4417 32.9717 14.3834 33.3464 14.3334C33.6878 14.2834 34.0208 14.2167 34.3456 14.1001C34.4954 14.0417 34.6453 13.9834 34.7868 13.9001C35.1116 13.7084 34.9617 13.6751 34.7952 13.3917C33.8876 11.8667 34.2956 9.93339 34.254 8.25839C34.2207 6.86673 33.8543 5.34173 32.5887 4.55839C31.448 3.85006 29.7578 3.82506 28.5339 4.32506C25.0036 5.74173 27.0851 10.4251 25.8778 13.1084C25.6697 13.5584 25.3699 13.7167 25.8945 13.9834C26.1859 14.1334 26.5023 14.2334 26.8187 14.3084C27.3016 14.4251 27.8012 14.4917 28.3007 14.5084C28.384 14.5084 28.3257 15.5584 28.3007 15.6667C28.2091 16.0751 27.3182 16.1917 26.9852 16.2834C26.6438 16.3751 26.0776 16.4001 25.9111 16.7584C25.6613 17.2917 26.7354 17.1584 27.0019 17.2084C27.8594 17.3667 28.6171 17.8417 29.2832 18.3834C29.7828 18.7917 30.4572 19.3417 30.6404 20.0084C32.8635 20.0084 35.0949 20.0084 37.318 20.0084C37.3014 18.3334 36.2106 17.1417 34.7452 16.6584Z" fill="black" fill-opacity="0.54"/>
</svg>
