<svg width="28" height="26" viewBox="0 0 28 26" fill="none" xmlns="http://www.w3.org/2000/svg">
<path fill-rule="evenodd" clip-rule="evenodd" d="M13.5323 24.081L10.1212 20.7505L9.39154 21.4562L14.0374 26L18.6833 21.4562L17.9474 20.7505L14.5301 24.081V17.4572H13.5323V24.081Z" fill="black" fill-opacity="0.54"/>
<path fill-rule="evenodd" clip-rule="evenodd" d="M22.9612 7.32952C22.9612 7.25524 22.9737 7.18714 22.9737 7.11286C22.9737 3.18191 19.6748 0 15.69 0C12.8151 0 10.3394 1.65905 9.17951 4.04857C8.67439 3.80095 8.11314 3.65857 7.50824 3.65857C5.66236 3.65857 4.13452 5.10095 3.83519 6.83429C1.64009 7.57714 0.0561218 9.52095 0.0561218 11.9352C0.0561218 14.9748 2.55679 17.4571 5.64365 17.4571H10.0401H11.3497H13.5323V9.1H14.5301V17.4571H22.8864C25.6926 17.4571 27.9938 15.1543 27.9938 12.3748C27.9938 9.59524 25.7862 7.33571 22.9612 7.32952Z" fill="black" fill-opacity="0.54"/>
</svg>
